<svg id="_ÎÓÈ_1" data-name="—ÎÓÈ_1" xmlns="http://www.w3.org/2000/svg" viewBox="0 0 1026.06 796.88"><defs><style>.cls-1{fill:#004060;}</style></defs><title>logo</title><path class="cls-1" d="M382,596.94c-.16-3.6-.25-7.15-.25-10.64,0-87.55,32.08-152.64,95.33-193.46,54.26-35,132.19-52.85,231.54-53.09,99.49.24,177.44,18.11,231.68,53.09,63.27,40.82,95.35,105.91,95.35,193.46,0,3.49-.09,7-.25,10.64q14.61,3.82,29.13,8,.65-9.51.65-18.64c0-48.53-9.15-91.58-27.19-127.94-18.21-36.73-45.7-67.12-81.69-90.34-59.07-38.09-142.37-57.54-247.68-57.8C603.41,310.48,520.13,329.93,461,368c-36,23.21-63.46,53.61-81.67,90.33-18,36.36-27.19,79.41-27.19,127.94q0,9.13.64,18.64Q367.36,600.75,382,596.94Z" transform="translate(-195.63 -310.22)"/><path class="cls-1" d="M950.86,833.79c-13.47,22.86-28.21,45.63-44,67.84-34.68,48.86-73.17,93.13-108.38,124.66-46.06,41.28-74.21,50.67-89.84,51.26-15.52-.55-43.69-9.9-89.84-51.26-35.23-31.55-73.72-75.83-108.38-124.67-15.78-22.22-30.52-45-44-67.82q-14.91,3.57-29.73,7.61c15,26.05,31.68,52,49.63,77.31,35.9,50.57,75.94,96.59,112.76,129.57,43,38.52,78.51,57.75,108.51,58.77l1,0,.94,0c30.08-1,65.6-20.25,108.59-58.77C855,1015.34,895,969.32,931,918.72c17.95-25.26,34.6-51.24,49.64-77.31Q965.77,837.38,950.86,833.79Z" transform="translate(-195.63 -310.22)"/><polygon class="cls-1" points="513.03 95.63 531.39 132.84 572.46 138.81 542.75 167.78 549.76 208.68 513.03 189.37 476.3 208.68 483.31 167.78 453.59 138.81 494.66 132.84 513.03 95.63"/><path class="cls-1" d="M300.94,825.75q-16.69,4.2-33.31,8.75a36,36,0,0,1-26.18-2.65,33.86,33.86,0,0,1-10.1-8,31,31,0,0,1-6.27-11.57l-28.2-95.21A28.89,28.89,0,0,1,196,703.9a32.68,32.68,0,0,1,4.79-12.34,37.7,37.7,0,0,1,9.61-10.11A41,41,0,0,1,224,675q18.27-5,36.61-9.62a40.8,40.8,0,0,1,14.91-1,37.65,37.65,0,0,1,13.3,4.09,34.32,34.32,0,0,1,10.34,8.37,28.1,28.1,0,0,1,5.83,11.86q1.86,8.05,3.7,16.1-18,4.14-36,8.67-2-8-4-16-18,4.53-35.94,9.45l26.22,95.77q17-4.64,34-8.92-4-16-8.06-32-8.69,2.17-17.33,4.46Q263.25,750.07,259,734q26.58-7,53.31-13.13l14.85,64.59a29.93,29.93,0,0,1,.13,13.18,35.67,35.67,0,0,1-26.38,27.12Z" transform="translate(-195.63 -310.22)"/><path class="cls-1" d="M479.77,791q-16.95,2.35-33.87,5a35.57,35.57,0,0,1-25.58-5.51,33.78,33.78,0,0,1-9.13-9.06,31.07,31.07,0,0,1-4.95-12.19Q394.5,704.13,382.74,639q18.54-3.35,37.14-6.31L440.7,763.39q17.25-2.76,34.55-5.15-9.08-65.54-18.14-131.08,18.75-2.6,37.55-4.8,7.71,65.71,15.43,131.43a30,30,0,0,1-1.29,13.11,35.43,35.43,0,0,1-29,24.06Z" transform="translate(-195.63 -310.22)"/><path class="cls-1" d="M592.42,779.25l-11.52-165q18.74-1.31,37.49-2.23,4.08,82.58,8.14,165.16Q609.46,778.06,592.42,779.25Z" transform="translate(-195.63 -310.22)"/><path class="cls-1" d="M815.76,646.05q-18.53-1.09-37.07-1.82-2.57,66.1-5.14,132.23-17.07-.66-34.15-1,1.22-66.15,2.44-132.31-18.44-.33-36.87-.3l-.06-33q56.43-.12,112.81,3.24Q816.75,629.57,815.76,646.05Z" transform="translate(-195.63 -310.22)"/><path class="cls-1" d="M987.1,631.08q12.69,76,21.51,152.09-1.68,9.29-3.35,18.58-17-3.07-34-5.78l2.22-14q-1.28-9.76-2.63-19.52-20.28-3.16-40.63-5.83-4,9-8,18-.9,7-1.79,14-17-2.16-34-4,1-9.37,2-18.76Q918.12,695.44,951.55,626,969.34,628.35,987.1,631.08Zm-42.28,94.19q10.53,1.46,21,3-2.72-17.76-5.65-35.52Q952.42,709,944.82,725.27Z" transform="translate(-195.63 -310.22)"/><path class="cls-1" d="M1206.35,764.78a29.89,29.89,0,0,1-10.69,15.63,37,37,0,0,1-18,7.31q4.59,22.37,8.68,44.72-1.69,5.74-3.41,11.51-16.65-4.94-33.38-9.51c.4-1.45.79-2.9,1.19-4.34q-4.87-24.69-10.36-49.38-6-1.56-12-3.07l-12.1,48q-16.68-4.2-33.43-8.05,18.51-80.58,37-161.16,36.83,8.47,73.36,18.47a40.73,40.73,0,0,1,13.52,6.43,37.85,37.85,0,0,1,9.61,10.11,34.41,34.41,0,0,1,4.91,12.38,28,28,0,0,1-.73,13.2Q1213.41,740.92,1206.35,764.78Zm-70-19.17q17.51,4.41,35,9.19l13.14-48q-17.94-4.9-36-9.44Q1142.44,721.5,1136.37,745.61Z" transform="translate(-195.63 -310.22)"/><rect class="cls-1" x="646.48" y="577.29" width="30.27" height="10.32"/><rect class="cls-1" x="544.93" y="887.51" width="30.27" height="10.32" transform="translate(924.49 1475.12) rotate(180)"/><path class="cls-1" d="M605.37,919.52l15.17-40.89H606.91V865.86h29.28v11l-14,40.13h14.5L635,929.79H605.37Z" transform="translate(-195.63 -310.22)"/><path class="cls-1" d="M697.92,882.56v30.53c0,13-7.11,17.66-18.24,17.66-10.75,0-17.09-5.09-17.09-17.66V881.8c0-11.81,7.3-16.9,17.47-16.9S697.92,870.08,697.92,882.56Zm-20.07-1.82v34.17c0,2.4.68,3.84,2.31,3.84,1.44,0,2.3-1.25,2.3-3.84V880.64c0-2.88-.67-3.74-2.4-3.74C678.62,876.9,677.85,877.86,677.85,880.74Z" transform="translate(-195.63 -310.22)"/><path class="cls-1" d="M725.28,929.79V865.86h15.93c1.54,7,6.34,32.16,6.72,34.85h.67c-1.05-10.08-2.3-26.59-2.3-32.55v-2.3h14.3v63.93H743.42c-.77-5.47-5.28-34.94-5.57-37h-.76c.48,7.1,1.72,28.12,1.72,35.52v1.53Z" transform="translate(-195.63 -310.22)"/><path class="cls-1" d="M815.32,902.43H803.61v14.79h14.11L816,929.79H788.35V865.86H815.9v12.58H803.61v11.42h11.71Z" transform="translate(-195.63 -310.22)"/><path class="cls-1" d="M495,487.16h-11v4.19h10.07v6.73H484.06v5.2H495.4V510H476.53V480.39H495Z" transform="translate(-195.63 -310.22)"/><path class="cls-1" d="M524.88,501.16c0-2.07-2.45-2.41-5.41-2.58-6.43-.46-10.66-2.66-10.75-9.09-.25-12.78,22.76-12.78,22.59,0h-7.19c0-3.94-8-3.6-8.2-.09-.17,2.25,2,2.71,4.69,3,5.88.63,11.64,1.39,11.64,8.8,0,12.43-24.12,12.77-23.95-.26h7.32C515.62,504.72,524.88,504.63,524.88,501.16Z" transform="translate(-195.63 -310.22)"/><path class="cls-1" d="M543.33,487.16v-6.77h22v6.77h-7.24V510H550.6V487.16Z" transform="translate(-195.63 -310.22)"/><path class="cls-1" d="M589.65,510H578.48V480.39h11.17C608.94,480.48,608.94,509.92,589.65,510Zm-3.6-6.89h3.6c9.43,0,9.43-15.82,0-15.82h-3.6Z" transform="translate(-195.63 -310.22)"/><path class="cls-1" d="M616.26,506.41a4.19,4.19,0,0,1,8.37,0,3.88,3.88,0,0,1-4.14,3.85C618.12,510.26,616.26,508.74,616.26,506.41Z" transform="translate(-195.63 -310.22)"/><path class="cls-1" d="M832.07,486.7a2.6,2.6,0,0,0-2.92,2.87h-6.43c-.08-6.39,4.23-9.52,9.48-9.64,8.5-.21,12.22,8.2,7.82,15l-6,8.3h8.8V510H822v-1.14l11.13-16.28C834.65,490.59,835.79,486.7,832.07,486.7Z" transform="translate(-195.63 -310.22)"/><path class="cls-1" d="M878.05,490V500.4c0,6.47-5,10.2-11.12,10.2s-11-3.73-11-10.2V490c0-6.47,5-10.2,11-10.2S878.05,483.57,878.05,490Zm-7.15,10.19V490.16c0-2.32-1.73-3.55-4-3.55s-3.85,1.23-3.85,3.55v10.07c0,2.41,1.69,3.64,3.85,3.64S870.9,502.64,870.9,500.23Z" transform="translate(-195.63 -310.22)"/><path class="cls-1" d="M891.17,486.53v-6.14h11.38v23.44H907V510H890.79v-6.17h4.39v-17.3Z" transform="translate(-195.63 -310.22)"/><path class="cls-1" d="M936.64,480.14l-6.26,10.66c6.26-.47,10.41,3.34,10.41,9.47,0,6.94-5,10.2-11.3,10.2s-11.38-3.26-11.38-10.2a10.4,10.4,0,0,1,1.57-5.79l8.54-14.34Zm-3.47,20.13a3.47,3.47,0,0,0-3.68-3.72,3.54,3.54,0,0,0-3.8,3.72,3.63,3.63,0,0,0,3.8,3.77A3.49,3.49,0,0,0,933.17,500.27Z" transform="translate(-195.63 -310.22)"/></svg>