<?xml version="1.0" standalone="no"?>
<!DOCTYPE svg PUBLIC "-//W3C//DTD SVG 20010904//EN"
 "http://www.w3.org/TR/2001/REC-SVG-20010904/DTD/svg10.dtd">
<svg version="1.0" xmlns="http://www.w3.org/2000/svg"
 width="1026.000000pt" height="1026.000000pt" viewBox="0 0 1026.000000 1026.000000"
 preserveAspectRatio="xMidYMid meet">
<metadata>
Created by potrace 1.11, written by Peter Selinger 2001-2013
</metadata>
<g transform="translate(0.000000,1026.000000) scale(0.100000,-0.100000)"
fill="#000000" stroke="none">
<path d="M4768 9104 c-2 -2 -49 -6 -104 -9 -54 -3 -117 -7 -139 -9 -22 -3 -74
-8 -115 -11 -140 -13 -155 -14 -190 -20 -103 -17 -280 -45 -315 -51 -22 -3
-43 -8 -46 -10 -3 -2 -21 -6 -40 -9 -19 -3 -52 -10 -74 -16 -22 -5 -51 -12
-65 -15 -111 -22 -347 -96 -495 -155 -16 -7 -36 -13 -42 -15 -26 -5 -73 -29
-73 -37 0 -5 -4 -6 -9 -3 -8 6 -232 -105 -331 -164 -56 -33 -241 -158 -250
-169 -3 -3 -21 -18 -40 -33 -70 -53 -180 -158 -265 -253 -38 -43 -75 -83 -80
-89 -37 -40 -191 -278 -237 -366 -74 -143 -155 -352 -184 -472 -1 -5 -3 -10
-4 -13 -3 -6 -3 -5 -20 -80 -8 -33 -15 -64 -15 -70 -1 -5 -4 -19 -8 -30 -3
-11 -9 -38 -12 -60 -3 -23 -7 -51 -10 -64 -2 -13 -7 -49 -11 -80 -3 -31 -8
-64 -10 -74 -15 -83 -25 -540 -11 -553 6 -6 65 7 222 50 32 9 61 18 62 20 2 2
6 86 9 187 2 101 6 200 8 219 3 19 7 60 10 91 4 31 9 67 11 80 3 13 8 38 10
54 16 94 40 197 57 250 11 33 21 65 22 70 15 57 20 73 30 90 5 11 11 22 11 25
4 24 45 125 65 160 5 8 23 44 41 80 18 36 42 79 53 95 12 17 26 37 31 46 84
136 286 364 377 427 13 9 30 23 38 31 25 24 151 114 220 157 98 61 257 144
264 137 3 -4 6 -1 6 5 0 7 6 12 13 12 7 0 29 9 50 20 20 11 39 20 42 20 3 0
22 7 43 15 97 41 407 138 482 152 14 2 50 10 80 18 30 7 69 16 85 19 17 3 39
7 50 9 11 3 40 8 65 12 25 4 54 9 65 11 24 5 131 20 205 29 30 4 66 9 80 11
14 1 61 6 105 9 44 4 96 8 115 10 210 23 775 23 1050 0 30 -2 87 -6 125 -9 39
-3 84 -8 100 -10 17 -3 55 -7 85 -11 30 -4 73 -9 95 -11 22 -3 51 -7 65 -10
14 -3 36 -7 50 -8 23 -3 116 -20 165 -30 15 -3 202 -46 260 -60 24 -6 131 -37
145 -43 8 -3 24 -8 35 -9 11 -2 36 -10 55 -18 19 -7 80 -31 135 -51 100 -38
351 -158 402 -192 16 -10 40 -25 56 -33 15 -7 27 -17 27 -22 0 -4 4 -8 10 -8
10 0 134 -88 184 -130 98 -83 205 -190 262 -260 16 -19 31 -37 35 -40 9 -7
121 -170 142 -205 108 -186 213 -454 251 -647 14 -65 16 -79 21 -105 3 -16 8
-46 10 -68 8 -62 13 -100 15 -100 5 0 10 -103 14 -274 3 -106 7 -196 10 -198
2 -3 22 -9 43 -14 59 -15 64 -16 138 -37 39 -11 77 -21 85 -23 10 -3 16 8 20
36 11 76 3 368 -14 510 -2 17 -7 57 -11 90 -4 32 -9 68 -11 79 -2 11 -6 38
-10 60 -3 22 -7 43 -9 46 -2 3 -6 23 -9 44 -13 82 -79 311 -106 371 -10 21
-32 80 -30 80 0 0 -15 33 -35 73 -19 40 -35 75 -35 77 0 3 -11 22 -24 43 -12
20 -24 42 -26 47 -5 19 -152 246 -175 271 -5 7 -26 31 -45 55 -37 48 -233 246
-290 295 -168 143 -405 289 -640 393 -104 47 -272 111 -291 111 -8 0 -19 4
-25 9 -5 6 -21 12 -36 15 -15 2 -32 7 -38 11 -5 3 -18 8 -27 10 -10 3 -79 21
-153 40 -149 39 -142 37 -255 59 -44 8 -93 18 -110 21 -16 4 -39 8 -50 10 -57
9 -175 25 -210 30 -22 2 -56 7 -75 10 -19 3 -60 7 -90 10 -166 14 -229 18
-267 19 -24 1 -43 3 -43 6 0 6 -777 10 -782 4z"/>
<path d="M5036 7964 c-50 -101 -92 -184 -95 -185 -4 0 -19 -2 -36 -3 -16 -2
-50 -7 -75 -11 -25 -4 -56 -9 -70 -10 -121 -14 -210 -30 -210 -38 0 -6 64 -72
141 -147 l141 -137 -12 -74 c-7 -41 -14 -83 -16 -94 -2 -11 -5 -29 -7 -40 -3
-11 -7 -41 -11 -66 -6 -40 -10 -64 -19 -113 -3 -17 29 -8 83 24 28 16 50 27
50 24 0 -4 6 -2 13 4 7 6 53 32 102 57 50 26 94 51 99 56 8 7 282 -128 341
-168 21 -14 49 -18 42 -5 -3 4 -8 25 -11 47 -3 22 -18 109 -32 194 l-27 154
147 142 c81 79 143 146 139 148 -4 3 -30 8 -58 11 -27 3 -67 8 -89 11 -21 4
-50 8 -65 10 -14 2 -26 4 -26 5 0 1 -16 3 -35 5 -89 8 -140 21 -140 36 0 11
-157 331 -168 340 -4 4 -47 -76 -96 -177z"/>
<path d="M3216 7408 c-22 -5 -48 -16 -58 -25 -26 -23 -33 -75 -14 -111 15 -30
37 -39 102 -47 33 -3 52 -21 37 -36 -17 -17 -46 -17 -81 1 -41 22 -66 20 -70
-7 -4 -25 50 -72 84 -74 13 -1 30 -2 37 -3 43 -6 119 55 112 91 -2 10 -4 24
-4 31 -2 27 -41 51 -94 57 -43 6 -56 11 -60 27 -7 26 30 41 59 23 21 -13 45
-18 76 -16 14 1 15 5 6 31 -16 47 -72 71 -132 58z"/>
<path d="M6321 7399 c-32 -19 -55 -53 -49 -71 7 -19 52 -17 71 3 18 19 47 16
47 -6 0 -13 -92 -159 -116 -182 -8 -8 -12 -18 -9 -22 2 -5 50 -9 105 -9 l100
-2 0 35 c0 34 -1 35 -40 35 -22 0 -40 2 -40 5 0 3 16 27 35 54 43 60 46 106
10 145 -13 14 -28 26 -32 27 -4 0 -18 2 -31 3 -12 2 -35 -5 -51 -15z"/>
<path d="M6690 7413 c-67 -19 -83 -45 -87 -138 -4 -119 27 -168 108 -167 77 1
111 41 114 135 2 75 -8 118 -34 141 -21 19 -77 35 -101 29z m62 -130 c5 -75
-1 -100 -24 -107 -42 -10 -53 7 -54 84 -1 64 1 73 20 80 35 13 54 -5 58 -57z"/>
<path d="M2810 7259 l0 -148 90 0 c50 0 91 3 92 7 0 4 2 19 3 35 2 26 1 27
-54 27 -54 0 -57 1 -57 25 0 23 3 25 48 25 26 0 49 3 49 8 1 4 2 19 3 34 2 26
-1 28 -39 27 -58 -2 -61 -1 -62 22 -2 16 3 20 18 16 10 -3 19 -1 19 4 0 6 7 6
18 1 9 -4 23 -8 31 -8 16 1 32 48 22 64 -4 6 -43 10 -94 10 l-87 0 0 -149z"/>
<path d="M3479 7404 c-1 -2 -1 -13 -1 -24 0 -38 2 -40 37 -40 l35 0 0 -116 0
-115 37 3 38 3 0 112 0 113 35 0 c34 0 36 2 35 33 l0 32 -107 1 c-60 1 -108
-1 -109 -2z"/>
<path d="M3830 7261 l0 -150 78 2 c56 2 86 7 109 22 61 36 83 125 49 195 -27
57 -58 72 -152 77 l-84 5 0 -151z m153 68 c1 -2 8 -14 15 -26 18 -33 15 -67
-9 -97 -17 -21 -28 -26 -53 -23 l-31 3 -1 70 c0 38 1 73 4 77 4 8 71 4 75 -4z"/>
<path d="M6957 7403 c-2 -5 -3 -19 -2 -33 0 -18 5 -24 18 -22 20 3 19 8 21
-91 1 -73 0 -78 -21 -83 -17 -5 -23 -13 -23 -35 l0 -29 79 0 c74 0 79 1 83 23
6 33 0 46 -22 40 -19 -5 -20 1 -20 116 l0 121 -54 0 c-30 0 -57 -3 -59 -7z"/>
<path d="M7308 7386 c-7 -14 -28 -50 -46 -81 -39 -67 -45 -101 -25 -142 26
-55 113 -71 175 -33 18 11 29 20 24 20 -6 0 -5 5 2 12 21 21 14 83 -13 112
-13 14 -29 27 -35 27 -9 1 -18 3 -35 8 -2 0 9 24 25 51 l29 50 -44 0 c-36 0
-46 -4 -57 -24z m46 -142 c21 -8 21 -60 0 -68 -41 -16 -74 41 -36 63 21 13 17
12 36 5z"/>
<path d="M4218 7173 c-20 -24 -12 -52 18 -59 46 -12 75 44 35 66 -27 14 -36
13 -53 -7z"/>
<path d="M5106 6110 c-11 -4 -14 -39 -13 -163 0 -143 2 -159 19 -168 10 -5 18
-6 18 -2 0 5 46 7 103 6 117 -4 118 -4 175 -3 46 1 66 -6 57 -20 -3 -5 -8
-145 -10 -312 -4 -253 -12 -672 -17 -920 -1 -32 2 -61 5 -65 4 -4 82 -9 172
-11 l165 -3 1 23 c0 13 2 74 4 137 4 108 8 199 20 501 3 69 8 186 10 260 3 74
7 176 9 225 2 50 4 109 5 132 l1 42 103 -5 c286 -12 267 -13 268 10 1 12 2 35
4 51 1 17 5 82 9 145 l6 115 -93 3 c-50 1 -128 4 -172 7 -185 11 -830 22 -849
15z"/>
<path d="M4057 6084 c-2 -2 -166 -13 -193 -14 -7 0 -11 -16 -9 -42 9 -121 16
-230 20 -293 8 -120 15 -218 20 -270 2 -27 7 -93 10 -145 4 -52 8 -124 11
-160 3 -36 6 -90 8 -120 4 -60 14 -200 22 -295 5 -75 16 -250 17 -292 l1 -31
111 5 c60 2 126 6 145 8 19 1 47 3 62 4 l27 1 -5 93 c-9 178 -13 273 -20 392
-3 66 -6 126 -5 133 2 22 1 36 -3 77 -3 22 -7 108 -11 190 -3 83 -8 184 -11
225 -2 41 -6 131 -9 200 -2 69 -5 125 -6 125 -2 0 -6 96 -8 168 l-1 48 -86 -3
c-47 -2 -86 -4 -87 -4z"/>
<path d="M2959 5986 c-2 -2 -33 -6 -69 -10 -36 -3 -75 -8 -87 -10 -12 -3 -46
-7 -75 -11 -29 -3 -62 -7 -73 -10 -11 -2 -25 -4 -31 -4 -8 -1 -7 -27 2 -88 8
-49 12 -93 9 -100 -2 -7 -1 -14 3 -17 4 -3 9 -20 10 -38 1 -19 5 -45 8 -58 2
-14 7 -43 9 -65 5 -43 14 -105 20 -146 5 -27 10 -64 20 -144 3 -27 8 -66 11
-85 3 -19 7 -51 10 -70 2 -19 6 -46 9 -60 2 -14 7 -47 11 -75 3 -27 7 -61 9
-75 6 -35 13 -87 20 -140 3 -25 9 -69 14 -97 l8 -53 -31 -5 c-34 -5 -179 -26
-211 -30 -11 -2 -36 -6 -57 -10 -32 -6 -38 -4 -49 17 -7 12 -11 24 -10 26 2 1
0 19 -3 40 -3 20 -8 53 -11 72 -2 19 -7 46 -9 60 -3 14 -7 43 -11 65 -3 22
-12 78 -20 125 -16 100 -25 154 -30 195 -3 17 -7 41 -10 55 -9 45 -17 95 -20
125 -2 17 -8 57 -14 90 -5 33 -13 80 -16 105 -3 25 -8 59 -12 75 -7 33 -12 66
-17 105 -19 146 -20 149 -64 140 -51 -11 -164 -29 -215 -34 -15 -2 -30 -6 -34
-10 -3 -3 -18 -6 -32 -6 -33 0 -49 -11 -46 -30 14 -83 38 -219 42 -235 16 -76
35 -183 35 -197 -1 -10 4 -20 9 -23 5 -4 7 -10 4 -15 -3 -5 1 -42 9 -82 13
-66 23 -119 31 -173 2 -11 6 -33 9 -50 4 -16 9 -46 12 -65 3 -19 7 -42 9 -50
2 -8 7 -30 10 -47 8 -49 14 -85 20 -113 3 -14 8 -41 11 -60 3 -19 7 -44 10
-55 2 -11 7 -40 10 -65 9 -66 38 -144 71 -187 15 -21 31 -39 35 -41 3 -2 19
-14 35 -28 25 -21 99 -53 143 -61 50 -8 67 -9 118 -1 31 4 77 10 102 14 25 3
54 8 65 11 23 5 83 12 138 17 21 2 40 6 44 10 3 3 16 6 28 6 35 0 128 51 171
96 86 87 110 172 93 321 -14 120 -19 157 -23 183 -2 14 -7 54 -10 90 -4 36 -9
81 -11 100 -5 35 -8 55 -20 165 -6 63 -10 91 -19 165 -4 25 -9 68 -12 95 -3
28 -7 66 -10 85 -2 19 -6 60 -9 90 -2 30 -5 55 -5 55 -3 0 -11 63 -15 110 -2
28 -4 51 -5 53 -3 2 -6 29 -9 57 -1 14 -21 21 -32 11z"/>
<path d="M7547 5926 c-10 -14 -17 -27 -17 -29 0 -3 -25 -58 -56 -123 -111
-234 -154 -326 -154 -330 0 -2 -23 -52 -51 -111 -27 -59 -54 -117 -59 -128 -5
-11 -19 -42 -31 -70 -13 -27 -24 -52 -24 -55 -3 -9 -22 -53 -48 -110 -60 -131
-109 -246 -110 -257 0 -7 -4 -13 -9 -13 -4 0 -8 -8 -8 -18 0 -10 -7 -28 -16
-40 -8 -12 -13 -22 -9 -22 3 0 -2 -14 -11 -31 -19 -38 -20 -45 -29 -147 l-7
-82 39 -1 c21 -1 47 -3 58 -4 11 -1 43 -5 70 -9 99 -11 140 -17 152 -21 16 -5
21 4 28 55 3 23 7 54 10 69 5 31 80 202 86 197 2 -2 33 -7 69 -11 35 -3 67 -8
71 -11 4 -2 34 -6 66 -9 32 -3 69 -7 83 -10 13 -2 42 -7 65 -11 48 -7 42 -3
50 -39 19 -101 22 -156 11 -242 -6 -49 -5 -63 6 -64 7 0 22 -2 33 -5 23 -4 89
-15 125 -20 14 -1 36 -6 50 -9 14 -3 39 -7 55 -9 17 -2 37 -6 44 -7 11 -3 17
9 23 41 5 25 13 57 18 73 8 25 6 107 -4 182 -2 17 -7 53 -10 80 -3 28 -8 73
-12 100 -3 28 -7 62 -10 76 -5 36 -15 107 -19 144 -1 17 -6 50 -9 75 -4 25 -8
59 -10 75 -2 17 -11 80 -20 140 -24 161 -25 168 -30 190 -2 11 -7 43 -10 70
-4 28 -8 61 -11 75 -2 14 -7 43 -10 65 -3 22 -12 78 -20 125 -16 93 -26 158
-27 178 -1 6 -4 12 -7 13 -3 0 -13 2 -21 4 -35 7 -98 16 -140 21 -25 2 -56 6
-70 9 -14 3 -46 8 -71 11 -41 5 -48 2 -62 -20z m107 -703 c4 -27 9 -57 11 -68
4 -18 13 -76 20 -130 2 -11 6 -37 10 -59 l8 -39 -39 8 c-38 7 -97 15 -142 19
-12 1 -23 4 -25 6 -3 7 137 309 144 310 4 0 10 -21 13 -47z"/>
<path d="M9240 5645 c0 -3 -18 -85 -41 -183 -23 -97 -43 -185 -45 -194 -2 -10
-6 -26 -8 -35 -13 -56 -28 -121 -32 -138 -2 -11 -15 -69 -30 -130 -14 -60 -28
-119 -30 -130 -6 -30 -11 -53 -28 -125 -8 -36 -17 -76 -20 -90 -3 -14 -17 -74
-31 -135 -14 -60 -27 -119 -30 -130 -7 -32 -12 -55 -34 -145 -11 -47 -23 -100
-26 -119 -3 -19 -8 -38 -11 -43 -3 -4 1 -10 8 -12 78 -22 96 -27 118 -30 14
-3 27 -6 30 -7 3 -1 10 -3 15 -4 6 0 43 -9 83 -19 40 -10 75 -17 77 -15 3 3
71 265 91 354 3 11 6 25 8 30 2 6 6 27 11 48 7 35 10 38 34 34 61 -12 86 -19
93 -25 12 -11 100 -432 102 -487 l2 -50 80 -23 c43 -13 88 -25 99 -28 11 -2
48 -12 82 -23 35 -11 65 -16 67 -13 3 7 15 50 23 82 8 37 10 70 3 70 -4 0 -7
6 -7 13 0 20 -12 87 -27 157 -8 36 -12 68 -9 73 2 4 -1 7 -7 7 -6 0 -8 5 -5
10 4 6 2 25 -3 43 -16 50 -24 108 -15 105 15 -4 78 14 113 32 57 30 115 85
142 138 23 45 44 107 37 114 -1 2 3 13 10 26 7 13 14 31 16 40 1 9 11 44 21
77 10 33 19 62 19 65 1 3 4 12 7 20 3 8 16 49 28 90 12 41 24 84 27 95 4 11 7
54 6 95 0 93 -25 152 -98 226 -75 77 -132 100 -440 176 -44 10 -87 22 -95 25
-17 7 -24 9 -60 17 -14 3 -34 7 -45 10 -11 3 -49 11 -85 19 -60 13 -129 31
-172 43 -10 3 -18 3 -18 -1z m590 -486 c19 -6 40 -12 47 -14 9 -3 9 -12 2 -37
-15 -46 -40 -139 -44 -161 -2 -9 -6 -21 -9 -25 -3 -5 -7 -19 -9 -33 -3 -13
-11 -44 -18 -69 -17 -62 -25 -93 -32 -125 -6 -27 -19 -36 -33 -24 -8 6 -14 9
-14 5 0 -3 -11 -1 -25 4 -14 5 -36 12 -48 14 -12 3 -49 13 -82 22 -33 9 -69
18 -80 21 -11 2 -27 6 -35 8 -8 2 -21 4 -28 4 -13 1 -12 47 1 68 3 4 8 24 11
43 3 19 15 69 26 110 26 93 26 94 40 155 6 28 16 64 22 81 l11 31 131 -34 c72
-18 147 -38 166 -44z"/>
<path d="M540 5530 c-85 -22 -162 -42 -170 -45 -8 -2 -39 -11 -69 -19 -145
-40 -253 -136 -289 -256 -9 -30 -9 -156 0 -173 5 -10 11 -26 13 -35 2 -10 16
-58 31 -107 15 -50 29 -95 30 -101 2 -11 34 -120 57 -194 6 -19 12 -37 12 -40
5 -22 27 -98 32 -110 3 -8 5 -19 4 -24 -1 -4 4 -14 10 -22 6 -8 8 -14 5 -14
-4 0 -2 -8 3 -18 6 -11 12 -30 15 -43 12 -60 76 -259 95 -298 26 -49 91 -115
136 -136 105 -50 188 -51 355 -5 63 17 122 33 130 35 8 2 15 4 15 5 0 1 9 3
20 5 30 5 117 31 145 44 111 49 202 185 203 301 0 33 -12 105 -25 155 -9 37
-12 49 -23 100 -3 11 -7 31 -11 45 -3 14 -10 44 -14 67 -5 23 -17 71 -26 105
-9 35 -17 72 -19 83 -8 58 -38 165 -46 165 -10 0 -285 -65 -339 -80 -41 -11
-148 -40 -170 -44 -18 -4 -19 5 19 -136 17 -63 34 -131 39 -150 9 -38 14 -39
92 -20 103 26 93 31 115 -62 11 -46 20 -85 20 -88 1 -3 4 -14 8 -25 3 -11 9
-31 12 -45 2 -14 8 -37 11 -51 6 -25 3 -27 -48 -39 -29 -6 -82 -21 -117 -31
-35 -11 -66 -17 -69 -14 -3 3 -10 1 -16 -4 -13 -11 -86 -26 -86 -18 0 5 -8 36
-40 152 -5 17 -20 73 -35 125 -15 52 -29 106 -32 120 -2 14 -6 31 -9 38 -2 7
-3 13 -3 15 0 1 -4 14 -10 30 -6 15 -13 38 -15 50 -3 12 -12 47 -21 77 -9 30
-17 62 -20 70 -2 8 -13 49 -25 90 -12 41 -23 84 -25 95 -2 11 -8 35 -14 53
-10 35 -7 39 36 47 10 2 18 4 18 5 0 1 7 3 15 5 8 1 53 13 100 25 47 13 92 24
100 25 8 1 23 5 33 9 42 15 44 14 56 -22 6 -20 13 -48 15 -62 3 -14 5 -26 7
-27 1 -2 2 -9 3 -15 1 -7 10 -12 21 -11 46 4 92 13 120 22 41 12 175 44 200
46 20 2 29 39 15 60 -4 6 -7 17 -8 25 0 26 -31 130 -47 160 -21 41 -89 104
-138 128 -106 53 -187 53 -387 2z"/>
<path d="M2625 3854 c-27 -8 -59 -16 -70 -18 -11 -3 -46 -12 -78 -20 -32 -9
-60 -16 -63 -16 -5 0 20 -46 74 -135 24 -38 48 -79 55 -90 7 -10 33 -52 60
-93 26 -40 47 -75 47 -77 0 -5 182 -277 190 -285 3 -3 20 -27 39 -55 41 -59
161 -225 176 -241 5 -6 17 -22 25 -34 16 -24 201 -262 210 -270 5 -5 85 -101
120 -143 232 -286 640 -683 896 -874 16 -12 50 -37 77 -57 26 -20 49 -36 51
-36 3 0 31 -17 63 -38 32 -22 92 -57 133 -79 303 -164 536 -190 804 -89 36 14
66 22 66 18 0 -4 4 -2 8 3 4 6 41 27 83 48 131 65 327 196 457 305 26 22 78
67 117 99 78 65 93 79 261 244 120 117 189 189 299 314 33 38 71 80 85 96 14
15 39 44 55 65 17 20 37 44 46 53 9 9 51 61 95 116 43 55 82 102 87 103 4 2 7
8 7 13 0 6 10 20 23 33 12 13 47 59 77 101 30 43 60 83 66 89 6 6 70 97 142
201 73 105 136 195 142 202 5 7 10 15 10 18 0 4 13 25 29 48 30 43 186 295
234 378 l26 46 -64 18 c-35 9 -66 16 -67 15 -2 -1 -15 3 -31 9 -15 6 -38 13
-50 15 -12 3 -36 8 -53 11 -31 7 -33 5 -84 -76 -28 -46 -57 -93 -63 -104 -7
-11 -29 -45 -49 -77 -21 -31 -38 -60 -38 -64 0 -4 -7 -14 -15 -23 -8 -9 -47
-65 -87 -126 -40 -60 -76 -114 -80 -120 -5 -5 -62 -85 -127 -176 -66 -91 -128
-176 -140 -190 -11 -13 -48 -60 -83 -104 -76 -97 -107 -135 -206 -250 -178
-208 -415 -455 -566 -588 -38 -34 -77 -69 -85 -77 -43 -41 -225 -181 -291
-225 -41 -27 -78 -54 -82 -60 -4 -5 -8 -6 -8 -1 0 5 -8 2 -17 -6 -81 -70 -367
-173 -448 -162 -116 16 -187 39 -308 99 -80 40 -254 148 -303 188 -10 9 -62
50 -114 92 -129 104 -221 187 -369 336 -150 150 -258 267 -361 389 -30 36 -57
67 -60 70 -4 3 -44 52 -91 110 -46 58 -88 110 -94 117 -13 15 -43 54 -94 123
-22 30 -44 60 -49 65 -4 6 -33 44 -62 85 -30 41 -58 77 -62 78 -5 2 -8 8 -8
13 0 8 -59 99 -71 109 -5 4 -87 128 -224 340 -52 81 -95 151 -95 156 0 2 -10
18 -22 34 -24 33 -31 34 -103 14z"/>
<path d="M4120 3550 c-5 -3 -8 -32 -7 -65 l2 -60 65 0 c51 -1 64 -4 62 -16 -3
-12 -50 -140 -71 -194 -35 -86 -51 -132 -51 -141 0 -6 -6 -24 -14 -40 -10 -23
-14 -72 -7 -115 1 -5 273 -5 293 -1 4 1 7 14 8 30 0 15 1 42 3 61 l2 35 -67
-2 c-38 -1 -68 1 -68 4 0 7 52 159 95 279 42 115 55 225 26 225 -124 4 -265 4
-271 0z"/>
<path d="M4746 3538 c-70 -41 -76 -64 -76 -300 0 -235 7 -267 66 -307 29 -20
47 -24 107 -24 59 0 79 4 109 24 64 42 71 71 71 301 0 227 -6 254 -66 299 -47
35 -157 39 -211 7z m120 -292 c1 -212 0 -226 -25 -219 -16 4 -18 22 -18 201 0
108 2 201 4 205 3 4 12 7 21 5 15 -3 17 -25 18 -192z"/>
<path d="M5299 3550 c-4 -18 -3 -623 1 -629 3 -3 34 -7 69 -8 l64 -1 -6 154
c-3 85 -8 158 -11 162 -3 4 -1 14 5 22 7 12 9 9 10 -10 0 -14 2 -33 4 -42 4
-20 15 -92 20 -133 2 -16 7 -48 10 -70 4 -22 7 -49 8 -60 2 -18 9 -20 90 -21
l87 0 -2 319 -3 320 -42 -1 c-110 -2 -101 2 -98 -39 2 -21 6 -78 10 -128 3
-49 7 -102 9 -117 6 -47 -11 -21 -18 29 -4 27 -9 55 -11 63 -2 8 -11 54 -21
103 -17 87 -17 87 -48 88 -17 0 -52 1 -79 2 -26 1 -48 0 -48 -3z"/>
<path d="M5929 3540 c-4 -59 -3 -613 1 -619 4 -6 227 -8 266 -3 6 1 11 8 11
15 0 6 3 33 7 60 l7 47 -71 0 -71 0 3 73 3 72 35 2 c19 0 44 1 55 2 18 1 21 8
22 61 1 49 -2 60 -15 61 -10 1 -35 2 -57 3 l-40 1 -3 57 -3 57 43 -1 c87 -1
83 -4 82 57 -1 31 -4 58 -7 62 -3 3 -65 6 -137 7 -109 1 -130 -1 -131 -14z"/>
<path d="M3502 3331 c-6 -3 -9 -26 -8 -51 l1 -45 150 0 150 0 0 50 0 49 -142
2 c-78 0 -146 -2 -151 -5z"/>
<path d="M6466 3331 c-3 -5 0 -77 3 -92 0 -3 68 -6 150 -6 l148 0 -1 51 -1 51
-148 1 c-82 0 -150 -2 -151 -5z"/>
</g>
</svg>
